<?xml version="1.0" encoding="UTF-8" standalone="no"?>
<!-- Created with Inkscape (http://www.inkscape.org/) -->

<svg
   xmlns:dc="http://purl.org/dc/elements/1.1/"
   xmlns:cc="http://creativecommons.org/ns#"
   xmlns:rdf="http://www.w3.org/1999/02/22-rdf-syntax-ns#"
   xmlns:svg="http://www.w3.org/2000/svg"
   xmlns="http://www.w3.org/2000/svg"
   xmlns:xlink="http://www.w3.org/1999/xlink"
   xmlns:sodipodi="http://sodipodi.sourceforge.net/DTD/sodipodi-0.dtd"
   xmlns:inkscape="http://www.inkscape.org/namespaces/inkscape"
   width="112"
   height="28"
   id="svg4428"
   version="1.1"
   inkscape:version="0.48.5 r10040"
   sodipodi:docname="close.svg">
  <defs
     id="defs4430">
    <linearGradient
       id="linearGradient3913">
      <stop
         style="stop-color:#ffffff;stop-opacity:1;"
         offset="0"
         id="stop3915" />
      <stop
         id="stop3921"
         offset="0.5"
         style="stop-color:#ffffff;stop-opacity:0.49803922;" />
      <stop
         style="stop-color:#ffffff;stop-opacity:0;"
         offset="1"
         id="stop3917" />
    </linearGradient>
    <linearGradient
       id="linearGradient3868">
      <stop
         style="stop-color:#5a5a5a;stop-opacity:1;"
         offset="0"
         id="stop3870" />
      <stop
         style="stop-color:#646464;stop-opacity:1;"
         offset="1"
         id="stop3872" />
    </linearGradient>
    <linearGradient
       id="linearGradient3813">
      <stop
         style="stop-color:#666666;stop-opacity:1;"
         offset="0"
         id="stop3815" />
      <stop
         style="stop-color:#636363;stop-opacity:1;"
         offset="1"
         id="stop3817" />
    </linearGradient>
    <linearGradient
       id="linearGradient3787">
      <stop
         style="stop-color:#e5e5df;stop-opacity:1;"
         offset="0"
         id="stop3789" />
      <stop
         style="stop-color:#dadad4;stop-opacity:1;"
         offset="1"
         id="stop3791" />
    </linearGradient>
    <linearGradient
       id="linearGradient3806-3-5-6">
      <stop
         style="stop-color:#303030;stop-opacity:1;"
         offset="0"
         id="stop3808-6-9-1" />
      <stop
         style="stop-color:#232323;stop-opacity:1;"
         offset="1"
         id="stop3810-4-6-3" />
    </linearGradient>
    <linearGradient
       inkscape:collect="always"
       xlink:href="#linearGradient3787"
       id="linearGradient3793"
       x1="40"
       y1="1044.3622"
       x2="40"
       y2="1032.3622"
       gradientUnits="userSpaceOnUse" />
    <linearGradient
       inkscape:collect="always"
       xlink:href="#linearGradient3787"
       id="linearGradient3828"
       gradientUnits="userSpaceOnUse"
       x1="40"
       y1="1044.3622"
       x2="40"
       y2="1032.3622"
       gradientTransform="matrix(1.1666666,0,0,1.0769231,-6.5,-80.335554)" />
    <linearGradient
       inkscape:collect="always"
       xlink:href="#linearGradient3787-8"
       id="linearGradient3835"
       gradientUnits="userSpaceOnUse"
       gradientTransform="matrix(1.1666666,0,0,1.0769231,-35.5,-1105.6978)"
       x1="40"
       y1="1044.3622"
       x2="40"
       y2="1032.3622" />
    <linearGradient
       inkscape:collect="always"
       xlink:href="#linearGradient3787-8"
       id="linearGradient3835-4"
       gradientUnits="userSpaceOnUse"
       gradientTransform="matrix(1.1666666,0,0,1.0769231,-35.5,-1105.6978)"
       x1="40"
       y1="1044.3622"
       x2="40"
       y2="1032.3622" />
    <linearGradient
       id="linearGradient3787-8">
      <stop
         style="stop-color:#f5f5ee;stop-opacity:1;"
         offset="0"
         id="stop3789-2" />
      <stop
         style="stop-color:#e6e6df;stop-opacity:1;"
         offset="1"
         id="stop3791-6" />
    </linearGradient>
    <linearGradient
       inkscape:collect="always"
       xlink:href="#linearGradient3787-8"
       id="linearGradient3835-3"
       gradientUnits="userSpaceOnUse"
       gradientTransform="matrix(1.1666666,0,0,1.0769231,-35.5,-1105.6978)"
       x1="40"
       y1="1044.3622"
       x2="40"
       y2="1032.3622" />
    <linearGradient
       id="linearGradient3787-7">
      <stop
         style="stop-color:#f5f5ee;stop-opacity:1;"
         offset="0"
         id="stop3789-3" />
      <stop
         style="stop-color:#e6e6e0;stop-opacity:1;"
         offset="1"
         id="stop3791-3" />
    </linearGradient>
    <linearGradient
       inkscape:collect="always"
       xlink:href="#linearGradient3787"
       id="linearGradient3807"
       x1="11"
       y1="15.75"
       x2="11"
       y2="8.25"
       gradientUnits="userSpaceOnUse" />
    <linearGradient
       inkscape:collect="always"
       xlink:href="#linearGradient3813"
       id="linearGradient3819"
       x1="29.5"
       y1="15.2"
       x2="29.5"
       y2="8.8000002"
       gradientUnits="userSpaceOnUse" />
    <linearGradient
       inkscape:collect="always"
       xlink:href="#linearGradient4231"
       id="linearGradient3807-1"
       x1="10"
       y1="7.0000038"
       x2="10"
       y2="15.888954"
       gradientUnits="userSpaceOnUse" />
    <linearGradient
       id="linearGradient4231">
      <stop
         id="stop4233"
         offset="0"
         style="stop-color:#e7e7e1;stop-opacity:1;" />
      <stop
         id="stop4239"
         offset="1"
         style="stop-color:#dadad3;stop-opacity:1;" />
    </linearGradient>
    <linearGradient
       inkscape:collect="always"
       xlink:href="#linearGradient4231-1"
       id="linearGradient3807-1-1"
       x1="10"
       y1="15.888976"
       x2="10"
       y2="7.0000262"
       gradientUnits="userSpaceOnUse" />
    <linearGradient
       id="linearGradient4231-1">
      <stop
         id="stop4233-6"
         offset="0"
         style="stop-color:#e5e5de;stop-opacity:1;" />
      <stop
         id="stop4239-7"
         offset="1"
         style="stop-color:#dadad3;stop-opacity:1;" />
    </linearGradient>
    <linearGradient
       id="linearGradient4363">
      <stop
         style="stop-color:#979791;stop-opacity:1;"
         offset="0"
         id="stop4365" />
      <stop
         style="stop-color:#dadad4;stop-opacity:0;"
         offset="1"
         id="stop4367" />
    </linearGradient>
    <linearGradient
       id="linearGradient4363-7">
      <stop
         style="stop-color:#f5f5ef;stop-opacity:1;"
         offset="0"
         id="stop4365-9" />
      <stop
         style="stop-color:#dadad4;stop-opacity:0;"
         offset="1"
         id="stop4367-8" />
    </linearGradient>
    <linearGradient
       inkscape:collect="always"
       xlink:href="#linearGradient4231-7"
       id="linearGradient4361"
       gradientUnits="userSpaceOnUse"
       gradientTransform="matrix(1.1875,0,0,1,-41.25,0)"
       x1="248.63158"
       y1="79"
       x2="248.63158"
       y2="58" />
    <linearGradient
       id="linearGradient4231-7">
      <stop
         id="stop4233-4"
         offset="0"
         style="stop-color:#e6e6df;stop-opacity:1;" />
      <stop
         id="stop4239-8"
         offset="1"
         style="stop-color:#d1d1ca;stop-opacity:1;" />
    </linearGradient>
    <linearGradient
       inkscape:collect="always"
       xlink:href="#linearGradient4231-7"
       id="linearGradient3127"
       gradientUnits="userSpaceOnUse"
       gradientTransform="matrix(1.1875,0,0,1,-262.25,-55.99998)"
       x1="248.63158"
       y1="79"
       x2="248.63158"
       y2="58" />
    <linearGradient
       inkscape:collect="always"
       xlink:href="#linearGradient4231-7"
       id="linearGradient3154"
       gradientUnits="userSpaceOnUse"
       gradientTransform="matrix(1.1875,0,0,1,-262.25,-55.99998)"
       x1="248.63158"
       y1="79"
       x2="248.63158"
       y2="58" />
    <linearGradient
       inkscape:collect="always"
       xlink:href="#linearGradient4231-7"
       id="linearGradient3159"
       gradientUnits="userSpaceOnUse"
       gradientTransform="matrix(1.1875,0,0,1,-249.25,-54.99998)"
       x1="248.63158"
       y1="79"
       x2="248.63158"
       y2="58" />
    <linearGradient
       inkscape:collect="always"
       xlink:href="#linearGradient4231-7-9"
       id="linearGradient3159-0"
       gradientUnits="userSpaceOnUse"
       gradientTransform="matrix(1.1875,0,0,1,-262.25,-55.99998)"
       x1="248.63158"
       y1="79"
       x2="248.63158"
       y2="58" />
    <linearGradient
       id="linearGradient4231-7-9">
      <stop
         id="stop4233-4-2"
         offset="0"
         style="stop-color:#e6e6df;stop-opacity:1;" />
      <stop
         id="stop4239-8-9"
         offset="1"
         style="stop-color:#d1d1ca;stop-opacity:1;" />
    </linearGradient>
    <linearGradient
       id="linearGradient4231-5">
      <stop
         id="stop4233-41"
         offset="0"
         style="stop-color:#e5e5de;stop-opacity:1;" />
      <stop
         id="stop4239-73"
         offset="1"
         style="stop-color:#dadad3;stop-opacity:1;" />
    </linearGradient>
    <linearGradient
       inkscape:collect="always"
       xlink:href="#linearGradient4231-7-7"
       id="linearGradient3159-1"
       gradientUnits="userSpaceOnUse"
       gradientTransform="matrix(1.1875,0,0,1,-262.25,-55.99998)"
       x1="248.63158"
       y1="79"
       x2="248.63158"
       y2="58" />
    <linearGradient
       id="linearGradient4231-7-7">
      <stop
         id="stop4233-4-7"
         offset="0"
         style="stop-color:#e6e6df;stop-opacity:1;" />
      <stop
         id="stop4239-8-2"
         offset="1"
         style="stop-color:#d1d1ca;stop-opacity:1;" />
    </linearGradient>
    <linearGradient
       inkscape:collect="always"
       xlink:href="#linearGradient4231-73"
       id="linearGradient3807-1-7"
       x1="10"
       y1="15.888976"
       x2="10"
       y2="7.0000262"
       gradientUnits="userSpaceOnUse" />
    <linearGradient
       id="linearGradient4231-73">
      <stop
         id="stop4233-1"
         offset="0"
         style="stop-color:#e5e5de;stop-opacity:1;" />
      <stop
         id="stop4239-85"
         offset="1"
         style="stop-color:#dadad3;stop-opacity:1;" />
    </linearGradient>
    <filter
       inkscape:collect="always"
       id="filter3885">
      <feGaussianBlur
         inkscape:collect="always"
         stdDeviation="0.085"
         id="feGaussianBlur3887" />
    </filter>
    <radialGradient
       inkscape:collect="always"
       xlink:href="#linearGradient4363-7"
       id="radialGradient5329"
       cx="-14.843177"
       cy="1034.9207"
       fx="-14.843177"
       fy="1034.9207"
       r="8.0063524"
       gradientTransform="matrix(1,0,0,0.49292897,0.12127985,524.5964)"
       gradientUnits="userSpaceOnUse" />
    <filter
       inkscape:collect="always"
       id="filter5355"
       x="-0.18225814"
       width="1.3645163"
       y="-0.37276218"
       height="1.7455244">
      <feGaussianBlur
         inkscape:collect="always"
         stdDeviation="1.2065266"
         id="feGaussianBlur5357" />
    </filter>
  </defs>
  <sodipodi:namedview
     id="base"
     pagecolor="#bdc3c7"
     bordercolor="#666666"
     borderopacity="1.0"
     inkscape:pageopacity="1"
     inkscape:pageshadow="2"
     inkscape:zoom="5.8303572"
     inkscape:cx="70.840314"
     inkscape:cy="10.27393"
     inkscape:document-units="px"
     inkscape:current-layer="layer1"
     showgrid="false"
     inkscape:snap-bbox="true"
     inkscape:window-width="1440"
     inkscape:window-height="840"
     inkscape:window-x="-1"
     inkscape:window-y="-1"
     inkscape:window-maximized="1"
     showborder="false"
     inkscape:showpageshadow="false">
    <inkscape:grid
       type="xygrid"
       id="grid4436"
       empspacing="5"
       visible="true"
       enabled="true"
       snapvisiblegridlinesonly="true" />
  </sodipodi:namedview>
  <metadata
     id="metadata4433">
    <rdf:RDF>
      <cc:Work
         rdf:about="">
        <dc:format>image/svg+xml</dc:format>
        <dc:type
           rdf:resource="http://purl.org/dc/dcmitype/StillImage" />
        <dc:title />
      </cc:Work>
    </rdf:RDF>
  </metadata>
  <g
     inkscape:label="Layer 1"
     inkscape:groupmode="layer"
     id="layer1"
     transform="translate(0,-1024.3622)">
    <g
       id="4"
       inkscape:label="#g3842"
       transform="translate(81,-3)" />
    <text
       xml:space="preserve"
       style="font-size:4.95831585px;font-style:normal;font-weight:normal;line-height:125%;letter-spacing:0px;word-spacing:0px;fill:#000000;fill-opacity:1;stroke:none;font-family:Sans"
       x="-32.359913"
       y="962.20459"
       id="text3129"
       sodipodi:linespacing="125%"
       transform="scale(0.93892719,1.0650453)"><tspan
         sodipodi:role="line"
         id="tspan3131"
         x="-32.359913"
         y="962.20459">active-center</tspan></text>
    <text
       xml:space="preserve"
       style="font-size:4.95831585px;font-style:normal;font-weight:normal;line-height:125%;letter-spacing:0px;word-spacing:0px;fill:#000000;fill-opacity:1;stroke:none;font-family:Sans"
       x="11.110399"
       y="962.88507"
       id="text3129-2"
       sodipodi:linespacing="125%"
       transform="scale(0.93892719,1.0650453)"><tspan
         sodipodi:role="line"
         id="tspan3131-8"
         x="11.110399"
         y="962.88507">hover-center</tspan></text>
    <text
       xml:space="preserve"
       style="font-size:4.95831585px;font-style:normal;font-weight:normal;line-height:125%;letter-spacing:0px;word-spacing:0px;fill:#000000;fill-opacity:1;stroke:none;font-family:Sans"
       x="51.589565"
       y="962.71918"
       id="text3129-7"
       sodipodi:linespacing="125%"
       transform="scale(0.93892719,1.0650453)"><tspan
         sodipodi:role="line"
         id="tspan3131-9"
         x="51.589565"
         y="962.71918">pressed-center</tspan></text>
    <text
       xml:space="preserve"
       style="font-size:4.95831585px;font-style:normal;font-weight:normal;line-height:125%;letter-spacing:0px;word-spacing:0px;fill:#000000;fill-opacity:1;stroke:none;font-family:Sans"
       x="96.745804"
       y="963.06854"
       id="text3129-7-7"
       sodipodi:linespacing="125%"
       transform="scale(0.93892719,1.0650453)"><tspan
         sodipodi:role="line"
         id="tspan3131-9-4"
         x="96.745804"
         y="963.06854">inactive-center</tspan></text>
    <text
       xml:space="preserve"
       style="font-size:4.95831585px;font-style:normal;font-weight:normal;line-height:125%;letter-spacing:0px;word-spacing:0px;fill:#000000;fill-opacity:1;stroke:none;font-family:Sans"
       x="145.82875"
       y="962.55316"
       id="text3129-7-7-8"
       sodipodi:linespacing="125%"
       transform="scale(0.93892719,1.0650453)"><tspan
         sodipodi:role="line"
         id="tspan3131-9-4-4"
         x="145.82875"
         y="962.55316">deactivated-center</tspan></text>
    <path
       style="fill:url(#radialGradient5329);fill-opacity:1;stroke:#000000;stroke-width:0.1;stroke-linecap:butt;stroke-linejoin:miter;stroke-miterlimit:4;stroke-opacity:1;stroke-dasharray:none;filter:url(#filter5355)"
       d="m -22.665748,1038.6229 15.8877044,0 c -0.3742772,-10.7481 -15.8936154,-9.9594 -15.8877044,0 z"
       id="path3863"
       inkscape:connector-curvature="0"
       sodipodi:nodetypes="ccc"
       transform="matrix(0.93621189,0,0,0.86014161,-10.398936,123.65964)" />
    <g
       id="active-center"
       transform="matrix(0.02211836,0,0,-0.02211825,-25.018057,1049.0105)">
      <path
         inkscape:connector-curvature="0"
         d="m 430.199,7.36719 c 236.063,0 427.426,191.36681 427.426,427.43381 0,236.058 -191.363,427.426 -427.426,427.426 C 194.137,862.227 2.76953,670.859 2.76953,434.801 2.76953,198.734 194.137,7.36719 430.199,7.36719"
         style="fill:#d52735;fill-opacity:1;fill-rule:evenodd;stroke:none"
         id="path14" />
      <path
         inkscape:connector-curvature="0"
         d="m 430.199,43.7227 c 215.985,0 391.074,175.0903 391.074,391.0783 0,215.98 -175.089,391.07 -391.074,391.07 -215.984,0 -391.0779,-175.09 -391.0779,-391.07 0,-215.988 175.0939,-391.0783 391.0779,-391.0783"
         style="fill:#f25056;fill-opacity:1;fill-rule:evenodd;stroke:none"
         id="path16" />
    </g>
    <g
       id="hover-center"
       transform="matrix(0.02211825,0,0,-0.02211826,14.883068,1049.6298)">
      <path
         inkscape:connector-curvature="0"
         d="m 433,4.34766 c 236.059,0 427.426,191.36734 427.426,427.42934 0,236.063 -191.367,427.43 -427.426,427.43 C 196.934,859.207 5.56641,667.84 5.56641,431.777 5.56641,195.715 196.934,4.34766 433,4.34766"
         style="fill:#d52735;fill-opacity:1;fill-rule:evenodd;stroke:none"
         id="path14-6" />
      <path
         inkscape:connector-curvature="0"
         d="m 433,40.6992 c 215.98,0 391.07,175.0938 391.07,391.0778 C 824.07,647.762 648.98,822.852 433,822.852 217.012,822.852 41.9219,647.762 41.9219,431.777 41.9219,215.793 217.012,40.6992 433,40.6992"
         style="fill:#f25056;fill-opacity:1;fill-rule:evenodd;stroke:none"
         id="path16-5" />
      <path
         inkscape:connector-curvature="0"
         d="m 231.395,280.492 352.886,352.887 c 13.657,13.656 36,13.656 49.664,0 l 0.653,-0.66 c 13.66,-13.656 13.66,-36 0.004,-49.66 L 281.715,230.176 c -13.66,-13.66 -36.004,-13.66 -49.66,0 l -0.66,0.652 c -13.657,13.66 -13.657,36.008 0,49.664"
         style="fill:#9f1d2b;fill-opacity:1;fill-rule:evenodd;stroke:none"
         id="path18" />
      <path
         inkscape:connector-curvature="0"
         d="M 281.715,633.379 634.598,280.492 c 13.656,-13.656 13.656,-36.004 0,-49.66 l -0.657,-0.656 c -13.66,-13.66 -36.003,-13.66 -49.66,0 L 231.395,583.059 c -13.661,13.66 -13.661,36.004 0,49.664 l 0.656,0.656 c 13.66,13.66 36.004,13.66 49.664,0"
         style="fill:#9f1d2b;fill-opacity:1;fill-rule:evenodd;stroke:none"
         id="path20" />
    </g>
    <g
       id="pressed-center"
       transform="matrix(0.02211825,0,0,-0.02211836,56.21844,1049.0605)">
      <path
         inkscape:connector-curvature="0"
         d="M 433,9.64453 C 669.059,9.64453 860.426,201.012 860.426,437.07 860.426,673.133 669.059,864.5 433,864.5 196.934,864.5 5.56641,673.133 5.56641,437.07 5.56641,201.012 196.934,9.64453 433,9.64453"
         style="fill:#d52735;fill-opacity:1;fill-rule:evenodd;stroke:none"
         id="path14-4" />
      <path
         inkscape:connector-curvature="0"
         d="M 433,45.9961 C 648.98,45.9961 824.07,221.09 824.07,437.07 824.07,653.059 648.98,828.148 433,828.148 217.012,828.148 41.9219,653.059 41.9219,437.07 41.9219,221.09 217.012,45.9961 433,45.9961"
         style="fill:#d52735;fill-opacity:1;fill-rule:evenodd;stroke:none"
         id="path16-2" />
      <path
         inkscape:connector-curvature="0"
         d="m 231.395,285.789 352.886,352.883 c 13.657,13.66 36,13.66 49.664,0 l 0.653,-0.656 c 13.66,-13.657 13.66,-36.004 0.004,-49.661 L 281.715,235.473 c -13.66,-13.66 -36.004,-13.66 -49.66,0 l -0.66,0.652 c -13.657,13.66 -13.657,36.004 0,49.664"
         style="fill:#9f1d2b;fill-opacity:1;fill-rule:evenodd;stroke:none"
         id="path18-6" />
      <path
         inkscape:connector-curvature="0"
         d="M 281.715,638.672 634.598,285.789 c 13.656,-13.656 13.656,-36.004 0,-49.664 l -0.657,-0.652 c -13.66,-13.66 -36.003,-13.66 -49.66,0 L 231.395,588.355 c -13.661,13.657 -13.661,36.004 0,49.661 l 0.656,0.656 c 13.66,13.66 36.004,13.66 49.664,0"
         style="fill:#9f1d2b;fill-opacity:1;fill-rule:evenodd;stroke:none"
         id="path20-2" />
    </g>
    <g
       id="inactive-center"
       transform="matrix(0.02211826,0,0,-0.02211835,97.958727,1048.9484)">
      <path
         inkscape:connector-curvature="0"
         d="m 430.199,4.57031 c 236.063,0 427.43,191.36369 427.43,427.42969 0,236.059 -191.367,427.426 -427.43,427.426 C 194.137,859.426 2.76953,668.059 2.76953,432 2.76953,195.934 194.137,4.57031 430.199,4.57031"
         style="fill:#b4b4b4;fill-opacity:1;fill-rule:evenodd;stroke:none"
         id="path14-0" />
      <path
         inkscape:connector-curvature="0"
         d="m 430.199,40.9219 c 215.985,0 391.078,175.0901 391.078,391.0781 0,215.98 -175.093,391.074 -391.078,391.074 C 214.215,823.074 39.1211,647.98 39.1211,432 39.1211,216.012 214.215,40.9219 430.199,40.9219"
         style="fill:#c7c7c7;fill-opacity:1;fill-rule:evenodd;stroke:none"
         id="path16-8" />
    </g>
    <g
       id="deactivated-center"
       transform="matrix(0.02211826,0,0,-0.02211835,147.59347,1049.5681)">
      <path
         inkscape:connector-curvature="0"
         d="m 430.199,4.57031 c 236.063,0 427.43,191.36369 427.43,427.42969 0,236.059 -191.367,427.426 -427.43,427.426 C 194.137,859.426 2.76953,668.059 2.76953,432 2.76953,195.934 194.137,4.57031 430.199,4.57031"
         style="fill:#b4b4b4;fill-opacity:1;fill-rule:evenodd;stroke:none"
         id="path14-0-0" />
      <path
         inkscape:connector-curvature="0"
         d="m 430.199,40.9219 c 215.985,0 391.078,175.0901 391.078,391.0781 0,215.98 -175.093,391.074 -391.078,391.074 C 214.215,823.074 39.1211,647.98 39.1211,432 39.1211,216.012 214.215,40.9219 430.199,40.9219"
         style="fill:#c7c7c7;fill-opacity:1;fill-rule:evenodd;stroke:none"
         id="path16-8-4" />
    </g>
  </g>
</svg>
